Patient4_TMGait_0pt7_01_right_34_EMG.mot
version=1
nRows=30
nColumns=33
inDegrees=no
endheader
time	1LAddLong	2LGlutMax	3LGlutMed	4LIliopsoas	5LSemiMemb	6LBicFemLong	7LRecFem	8LVastMed	9LVastLat	10LGasMed	11LTibAnt	12lTibPost	13LPeroneusLong	14LSol	15LExtDigLong	16LFlexDigLong	17RAddLong	18RGlutMax	19RGlutMed	20RIliopsoas	21RSemiMemb	22RBicFemLong	23RRecFem	24RVastMed	25RVastLat	26RGasMed	27RTibAnt	28RTibPost	29RPeroneusLong	30RSol	31RExtDigLong	32RFlexDigLong
39.91	-0.010223	-0.14267	-0.094147	-0.026093	-0.019073	-0.008087	0.12253	0.010681	0.066986	-0.02533	0.017395	-0.002289	0.062256	0.14954	-0.22873	0.017395	0.012207	-0.002594	0.25528	0.058136	-0.075989	-0.004272	0.14603	-0.049133	-0.020294	-0.002747	-0.30823	-0.002594	-0.036316	0.007477	-0.002441	-0.009918
39.911	-0.027924	-0.11353	-0.10284	-0.001068	0.031433	0.000458	0.15015	0.005798	0.039368	0.014954	0.20447	0.004883	0.066223	0.084839	-0.15045	0.009918	0.001526	-0.019989	1.0101	0.043793	-0.13504	-0.013885	0.062714	-0.074158	-0.014038	-0.007324	-0.37109	-0.001221	0.20309	0.052032	-0.001373	-0.003357
39.912	-0.021515	-0.09079	-0.022278	0.005188	-0.053101	-0.030975	0.13657	0.00824	0.027313	0.024872	0.2861	0.010071	-0.043945	0.02533	-0.22873	-0.002747	0.026093	-0.075684	1.06	-0.027008	-0.17639	-0.033569	0.004883	-0.10361	-0.019531	-0.011292	-0.16022	-0.002899	-0.14252	0.071716	0.000916	-0.011139
39.913	-0.006866	-0.059814	0.096436	-0.008392	-0.14038	-0.15518	0.11185	-0.000153	0.039673	0.014343	0.15945	0.008545	-0.057678	-0.020752	-0.076599	-0.005646	0.035553	-0.045929	1.3757	-0.10986	-0.16083	-0.031433	0.009613	-0.087738	-0.014496	-0.010223	0.18433	-0.002289	-0.27191	0.034943	-0.002747	-0.01297
39.914	0.035248	-0.015106	0.026703	0.00351	-0.059814	-0.1738	0.088043	-0.005341	0.039063	-0.025635	-0.042877	0.006714	-0.16647	0.018616	0.21179	-0.008698	0.020447	-0.028534	0.3389	-0.069122	-0.19028	-0.006714	-0.007629	-0.099792	-0.02121	-0.009613	0.51651	-0.001984	-0.084076	-0.012512	-0.002441	-0.00061
39.915	0.023651	-0.007782	-0.012665	0.009308	0.057678	-0.091248	0.10773	-0.005341	0.018005	-0.072327	-0.23941	0.006409	-0.25925	0.037079	-0.12009	0.003052	-0.010223	-0.032654	-0.5452	-0.07782	0.076447	0.24429	-0.04715	-0.041962	0.007172	-0.002289	0.43976	0	0.068512	-0.063934	-0.001221	-0.002289
39.916	0.019989	0.020447	0.006561	-0.002899	0.087433	0.084076	0.1355	-0.003204	0.009308	-0.054169	-0.28671	0.003815	0.050812	0.050964	-0.40054	0.008698	0.004883	-0.080414	-0.64774	-0.012512	0.18173	0.32852	-0.14374	-0.04303	0.004272	0.006256	0.13947	-0.000916	0.12894	-0.08728	-0.008087	0.003815
39.917	0.024872	0.061951	-0.027161	-0.009003	0.10437	0.072174	0.19424	0.000916	0.050507	0.002747	-0.16922	-0.001221	0.042877	-0.093536	-0.34515	0.004425	0.052032	-0.034027	-0.39627	0.036469	0.07843	0.177	-0.21164	-0.039215	-0.015717	0.004883	-0.12878	-0.000916	0.21851	-0.1384	0.000458	-0.000153
39.918	0.027466	0.056	-0.084076	-0.005951	0.071716	0.002594	0.25665	-0.002747	0.095062	0.044708	0.032806	0.009766	-0.24414	-0.15228	-0.43442	-0.012512	0.093231	-0.075531	-0.16586	0.036774	0.099335	0.089417	-0.24506	-0.036774	-0.027313	0	-0.63522	0.001831	0.28336	-0.10956	0.000458	-0.003357
39.919	0.016327	0.056305	-0.076141	-0.030365	0.046234	-0.017395	0.23941	-0.001526	0.055389	0.055542	0.062561	0.00824	0.11734	-0.28122	-0.52383	-0.016632	0.11536	-0.07431	-0.18494	0.066223	-0.014343	-0.017548	-0.10605	-0.092316	-0.02533	-0.011902	-0.44037	0.001526	0.1297	-0.10712	-0.000305	-0.004425
39.92	0.006409	0.06012	-0.047302	-0.017853	0.016785	0.031281	0.23941	0.006104	0.029144	0.021973	-0.018005	0.006409	0.41	-0.27649	-0.12924	-0.007782	0.089264	-0.085907	-0.30167	0.063782	0.001984	-0.072021	0.00061	-0.14877	-0.014954	-0.010376	-0.20203	0.001526	0.058441	-0.11139	-0.003815	-0.000305
39.921	0.00412	0.095062	-0.068207	-0.007019	0.003052	0.032959	0.23285	0.007782	0.041504	-0.023193	-0.17624	0.002136	0.345	-0.18173	0.31464	0.000458	0.038757	-0.096893	-0.34744	0.060577	-0.002289	-0.093689	0.059814	-0.17227	-0.032349	-0.009155	-0.035095	-0.001068	0.18601	-0.030518	-0.000153	0.000305
39.922	0.011139	0.079041	0.000153	-0.016632	0.014191	0.09079	0.23285	-0.00061	0.041962	-0.00412	-0.088043	0.005951	-0.13992	-0.23056	0.50568	0.007172	0.015411	-0.06073	-0.46463	0.064392	-0.15717	-0.033569	-0.011749	-0.094147	-0.019989	-0.000763	0.006866	0.002594	0.009308	-0.046844	-0.002899	-0.007324
39.923	-0.008087	0.092621	0.011139	-0.010376	0.019073	0.13763	0.23468	0.011902	0.014801	0.005951	-0.00946	0.006866	-0.21301	-0.21912	0.41702	-0.000153	-0.00946	-0.021667	-0.60272	0.058289	-0.21561	0.1294	0.001526	0.06073	0.022583	0.000763	0.001221	-0.000153	-0.43533	0.033417	-0.001068	-0.024261
39.924	-0.00412	0.095978	0.043182	0.009308	0.024872	0.15839	0.14771	0.021667	-0.011749	-0.029449	0.087891	0.007629	0.084839	-0.10162	0.33341	0.012054	-0.046844	-0.006409	-0.55115	0.015411	-0.07431	0.20386	-0.029602	0.12787	0.001984	0.001831	-0.070801	-0.001221	-0.21988	0.11353	-0.003052	-0.046234
39.925	0.001373	0.098114	-0.004883	0.011902	0.022736	0.15793	0.11353	0.032043	0.013885	-0.032043	0.28976	0.008392	0.1152	0.055847	0.42114	-0.001831	-0.083923	-0.051727	-0.20584	0.050354	-0.10101	0.30243	0.00824	0.10162	0.005493	-0.000916	-0.11932	0.000763	0.18524	0.067291	-0.001068	-0.04425
39.926	0.007629	0.10544	-0.056152	0.003357	0.014343	0.097046	0.1384	0.009308	0.075378	0.010223	0.29648	0.008545	0.024567	0.072784	0.4306	0.002136	-0.093079	-0.081024	0.3244	0.096741	-0.075073	0.36179	-0.014191	0.038757	-0.018768	0	-0.1944	0.001221	0.28244	0.07782	-0.00061	-0.040588
39.927	0.007935	0.11078	-0.012207	-0.000916	0.00946	-0.026703	0.15152	-0.018616	0.075836	0.010681	0.09903	0.007782	0.12741	0.064392	-0.062714	0.010681	-0.080566	-0.11826	0.48401	0.079651	-0.14862	0.35492	0.007935	-0.005798	-0.025177	-0.007629	-0.16876	-0.003662	0.14954	0.057983	-0.003967	-0.041962
39.928	-0.002594	0.1149	-0.018311	-0.013428	0.011597	-0.11505	0.16769	-0.00824	-0.1091	-0.006104	-0.33997	0.003357	0.17166	0.063019	-0.35645	0.009766	-0.064545	-0.089417	0.00412	0.044556	-0.23178	0.30884	0.020599	-0.057983	-0.02243	-0.012512	-0.062408	-0.000153	0.01297	-0.03418	0	-0.038757
39.929	0.001831	0.11368	-0.075073	0.002899	0.015259	-0.10223	0.13931	-0.000916	-0.11826	-0.000916	-0.33188	0.011292	0.012665	0.098267	-0.092316	0.007629	-0.020142	-0.11444	-0.29633	0.008698	-0.30319	0.22232	0.057983	-0.075226	-0.045166	-0.008087	0.007172	-0.006561	-0.10178	-0.056763	-0.001984	-0.036316
39.93	-0.003204	0.11459	-0.066071	0.002594	0.018768	-0.0177	0.082092	0.003204	-0.064392	-0.01236	-0.17548	0.005341	-0.08194	0.045471	0.024414	0.005798	-0.004578	-0.099792	-0.25848	-0.014343	-0.33218	0.10574	-0.000916	-0.048523	-0.02243	-0.00473	0.019073	-0.003357	0.006714	-0.023651	-0.002899	-0.023499
39.931	-0.003357	0.15533	-0.051117	-0.001373	0.010834	-0.040741	0.12192	0.001984	-0.06134	-0.010071	-0.16937	0.007477	-0.15472	0.071106	0.28778	0.008545	0.001831	-0.089111	-0.2861	-0.033722	0.002594	0.1091	0.010376	0.029907	0.021515	-0.010376	0.094757	-0.002136	0.26901	-0.018921	-0.00061	-0.016174
39.932	-0.00824	0.18021	-0.045929	0.006256	0.010223	0.019531	0.19974	0.00061	-0.005341	-0.065308	-0.013275	0.007629	-0.034485	0.1416	-0.3714	0.00473	0.007782	-0.086975	-0.061188	-0.031891	0.32715	0.10117	-0.020905	0.0354	0.035553	-0.010986	0.13809	-0.003967	0.30701	-0.013275	-0.002899	-0.015106
39.933	0.001373	0.17883	-0.038757	0.008698	0.002441	0.023041	0.20355	-0.001831	0.12894	-0.032196	0.21668	0.002594	-0.18372	0.080719	-0.36163	0.012207	0.008545	-0.06073	-0.16373	-0.035095	0.20798	-0.068665	0.020447	0.02182	0.014038	-0.014954	0.16739	-0.005188	0.13336	-0.034943	-0.006409	-0.003052
39.934	0.000153	0.19516	-0.028839	0.007019	-0.001373	0.022278	0.18143	-0.010529	0.11459	0.006561	0.22415	0.001984	-0.066833	0.033112	-0.20386	-0.012207	0.02533	-0.07843	-0.11231	-0.087585	-0.05722	-0.036926	0.029602	-0.031891	0.013123	-0.016785	0.13107	-0.001221	-0.049133	-0.025787	-0.001984	-0.010376
39.935	0.002899	0.23132	0.034027	-0.009308	-0.006714	0.05661	0.18402	-0.012512	0.071869	-0.030518	0.051727	0.009155	0.47058	0.018311	-0.68405	-0.010071	0.033264	-0.096741	-0.066376	-0.13809	-0.16571	0.068207	0.024567	-0.037079	0.006866	-0.017548	0.02121	-0.003357	-0.095673	-0.049744	-0.003662	-0.00061
39.936	0.001984	0.22842	-0.029755	-0.009308	-0.018463	0.027313	0.18814	-0.002899	0.028687	-0.052338	-0.19058	0.004883	0.27832	0.010376	-0.52033	0.005188	0.061035	-0.052795	-0.21408	-0.091705	-0.10651	0.13123	0.050659	-0.059052	0.004883	-0.019989	0.041046	-0.001068	-0.22888	-0.068054	-0.000916	-0.009308
39.937	-0.002594	0.24506	0.011292	-0.02655	-0.040588	0.041809	0.18448	-0.001221	0.016022	-0.025024	-0.12268	0.001678	-0.28488	0.018311	-0.14435	0.006714	0.066681	-0.095367	-0.27649	-0.033417	-0.096436	0.046997	0.044403	-0.053406	0.008392	-0.019836	0.10895	0.004272	-0.29175	-0.068207	-0.00061	-0.016937
39.938	-0.001984	0.27298	0.029297	-0.019073	-0.039368	0.037537	0.19394	0.001526	0.006256	0.011292	-0.080719	0.005646	-0.079346	-0.14435	0.21301	-0.001678	0.11688	-0.062408	-0.16068	-0.02655	-0.21027	0.003967	0.018158	-0.11078	0.007324	-0.016937	0.082092	0	-0.097809	-0.0914	-0.003662	-0.007629
39.939	-0.006866	0.27985	0.015259	-0.006561	0.007019	-0.11612	0.19928	-0.000916	0.014191	0.005646	-0.057983	0.00412	0.1059	-0.28595	0.53802	-0.005035	0.041199	-0.033417	-0.20813	-0.15472	-0.52795	0.14084	0.037231	-0.078278	0.026855	-0.016479	-0.096436	-0.000763	-0.076141	-0.084686	-0.00351	-0.012817
